<?xml version="1.0" encoding="utf-8"?>
<!-- Generator: Adobe Illustrator 17.0.2, SVG Export Plug-In . SVG Version: 6.00 Build 0)  -->
<!DOCTYPE svg PUBLIC "-//W3C//DTD SVG 1.1//EN" "http://www.w3.org/Graphics/SVG/1.1/DTD/svg11.dtd">
<svg version="1.1" xmlns="http://www.w3.org/2000/svg" xmlns:xlink="http://www.w3.org/1999/xlink" x="0px" y="0px" width="400px"
	 height="326.536px" viewBox="0 0 400 326.536" enable-background="new 0 0 400 326.536" xml:space="preserve">
<g id="Dark_Blue">
</g>
<g id="Logo__x2014__FIXED">
	<g>
		<path fill="#FFFFFF" d="M126.668,324.021c149.179,0,230.759-123.59,230.759-230.758c0-3.512-0.071-7.008-0.232-10.485
			c15.834-11.447,29.601-25.731,40.46-41.993c-14.533,6.455-30.171,10.806-46.576,12.767c16.744-10.039,29.6-25.927,35.663-44.864
			c-15.674,9.29-33.024,16.048-51.498,19.686C320.444,12.61,299.367,2.75,276.043,2.75c-44.793,0-81.116,36.323-81.116,81.098
			c0,6.366,0.713,12.554,2.104,18.492C129.627,98.952,69.856,66.676,29.86,17.604c-6.972,11.983-10.984,25.909-10.984,40.763
			c0,28.138,14.319,52.978,36.091,67.51c-13.302-0.409-25.802-4.065-36.733-10.146c-0.018,0.338-0.018,0.678-0.018,1.034
			c0,39.283,27.96,72.075,65.067,79.512c-6.812,1.853-13.98,2.853-21.38,2.853c-5.225,0-10.307-0.517-15.246-1.463
			c10.325,32.222,40.264,55.67,75.766,56.331c-27.764,21.754-62.732,34.717-100.731,34.717c-6.544,0-12.999-0.374-19.347-1.123
			C38.241,310.594,80.858,324.021,126.668,324.021"/>
		<rect y="-36.615" fill="none" width="400" height="400"/>
	</g>
</g>
</svg>
